<svg width="3000" height="5139" viewBox="0 0 3000 5139" fill="none" xmlns="http://www.w3.org/2000/svg">
<g clip-path="url(#clip0_455_771)">
<rect width="3000" height="5139" fill="url(#paint0_linear_455_771)"/>
<g opacity="0.7">
<path d="M351.999 2316.85C225.098 2316.85 121.849 2420.09 121.849 2547C121.849 2673.91 225.098 2777.14 351.999 2777.14C478.9 2777.14 582.152 2673.91 582.152 2547C582.152 2420.09 478.9 2316.85 351.999 2316.85ZM351.999 2797C214.148 2797 102 2684.85 102 2547C102 2409.15 214.148 2297 351.999 2297C489.85 2297 602 2409.15 602 2547C602 2684.85 489.85 2797 351.999 2797Z" fill="#FFF0C7"/>
<path d="M591.725 2547C591.725 2679.39 484.389 2786.73 351.998 2786.73C219.606 2786.73 112.273 2679.39 112.273 2547C112.273 2414.61 219.606 2307.27 351.998 2307.27C484.389 2307.27 591.725 2414.61 591.725 2547Z" fill="#F5D6A6"/>
<path d="M408.485 2370.01C415.529 2350.74 405.086 2330.59 385.273 2325.24C385.273 2325.24 375.786 2322.69 351.153 2322.69C326.75 2322.69 317.68 2325.11 317.68 2325.11C297.86 2330.42 287.353 2350.54 294.332 2369.84L338.459 2491.8C345.437 2511.09 356.916 2511.12 363.961 2491.84L408.485 2370.01Z" fill="#FBF0D9"/>
<path d="M506.273 2447.14C524.059 2436.9 529.01 2414.75 517.268 2397.92C517.268 2397.92 511.645 2389.86 492.774 2374.03C474.081 2358.34 465.572 2354.37 465.572 2354.37C446.98 2345.7 425.993 2354.36 418.935 2373.63L374.346 2495.42C367.29 2514.68 376.067 2522.08 393.856 2511.84L506.273 2447.14Z" fill="#FBF0D9"/>
<path d="M531.608 2569.07C551.813 2572.67 569.842 2558.88 571.666 2538.44C571.666 2538.44 572.537 2528.66 568.259 2504.4C564.022 2480.36 560.056 2471.85 560.056 2471.85C551.391 2453.26 529.744 2446.4 511.951 2456.63L399.509 2521.26C381.721 2531.48 383.69 2542.79 403.899 2546.38L531.608 2569.07Z" fill="#FBF0D9"/>
<path d="M472.635 2678.77C485.804 2694.51 508.476 2695.54 523.012 2681.05C523.012 2681.05 529.969 2674.12 542.286 2652.78C554.487 2631.65 556.919 2622.58 556.919 2622.58C562.237 2602.76 550.059 2583.6 529.856 2580L402.175 2557.23C381.978 2553.63 376.216 2563.56 389.39 2579.3L472.635 2678.77Z" fill="#FBF0D9"/>
<path d="M356.948 2724.89C356.92 2745.42 373.625 2760.78 394.072 2759.02C394.072 2759.02 403.861 2758.18 427.009 2749.76C449.939 2741.41 457.632 2736.03 457.632 2736.03C474.443 2724.27 477.432 2701.76 464.273 2686.01L381.096 2586.5C367.94 2570.76 357.145 2574.66 357.119 2595.19L356.948 2724.89Z" fill="#FBF0D9"/>
<path d="M238.679 2685.87C225.467 2701.57 228.389 2724.07 245.179 2735.87C245.179 2735.87 253.219 2741.52 276.367 2749.95C299.298 2758.29 308.651 2759.11 308.651 2759.11C329.09 2760.91 345.848 2745.59 345.889 2725.07L346.135 2595.37C346.177 2574.86 335.399 2570.91 322.185 2586.61L238.679 2685.87Z" fill="#FBF0D9"/>
<path d="M173.166 2579.95C152.952 2583.48 140.724 2602.6 146.001 2622.43C146.001 2622.43 148.53 2631.93 160.847 2653.26C173.048 2674.39 179.686 2681.03 179.686 2681.03C194.188 2695.55 216.874 2694.58 230.096 2678.89L313.651 2579.7C326.87 2564.01 321.153 2554.05 300.934 2557.59L173.166 2579.95Z" fill="#FBF0D9"/>
<path d="M191.064 2456.7C173.306 2446.41 151.65 2453.2 142.945 2471.78C142.945 2471.78 138.78 2480.68 134.502 2504.94C130.265 2528.97 131.081 2538.32 131.081 2538.32C132.862 2558.76 150.86 2572.61 171.077 2569.09L298.844 2546.81C319.055 2543.28 321.074 2531.98 303.311 2521.7L191.064 2456.7Z" fill="#FBF0D9"/>
<path d="M283.998 2373.79C277.006 2354.49 256.054 2345.77 237.44 2354.41C237.44 2354.41 228.53 2358.55 209.659 2374.39C190.966 2390.07 185.578 2397.76 185.578 2397.76C173.804 2414.56 178.694 2436.74 196.445 2447.03L308.64 2512.09C326.387 2522.39 335.197 2515.03 328.201 2495.73L283.998 2373.79Z" fill="#FBF0D9"/>
</g>
<g opacity="0.7">
<path d="M576.999 830.853C450.098 830.853 346.849 934.093 346.849 1061C346.849 1187.91 450.098 1291.14 576.999 1291.14C703.9 1291.14 807.152 1187.91 807.152 1061C807.152 934.093 703.9 830.853 576.999 830.853ZM576.999 1311C439.148 1311 327 1198.85 327 1061C327 923.15 439.148 811 576.999 811C714.85 811 827 923.15 827 1061C827 1198.85 714.85 1311 576.999 1311Z" fill="#FFF0C7"/>
<path d="M816.725 1061C816.725 1193.39 709.389 1300.73 576.998 1300.73C444.606 1300.73 337.273 1193.39 337.273 1061C337.273 928.609 444.606 821.274 576.998 821.274C709.389 821.274 816.725 928.609 816.725 1061Z" fill="#F5D6A6"/>
<path d="M633.485 884.01C640.529 864.736 630.086 844.587 610.273 839.241C610.273 839.241 600.786 836.685 576.153 836.685C551.75 836.685 542.68 839.113 542.68 839.113C522.86 844.416 512.353 864.545 519.332 883.843L563.459 1005.8C570.437 1025.09 581.916 1025.12 588.961 1005.84L633.485 884.01Z" fill="#FBF0D9"/>
<path d="M731.273 961.135C749.059 950.899 754.01 928.751 742.268 911.92C742.268 911.92 736.645 903.864 717.774 888.03C699.081 872.344 690.572 868.374 690.572 868.374C671.98 859.696 650.993 868.362 643.935 887.631L599.346 1009.42C592.29 1028.68 601.067 1036.08 618.856 1025.84L731.273 961.135Z" fill="#FBF0D9"/>
<path d="M756.608 1083.07C776.813 1086.67 794.842 1072.88 796.666 1052.44C796.666 1052.44 797.537 1042.66 793.259 1018.4C789.022 994.364 785.056 985.853 785.056 985.853C776.391 967.255 754.744 960.403 736.951 970.628L624.509 1035.26C606.721 1045.48 608.69 1056.79 628.899 1060.38L756.608 1083.07Z" fill="#FBF0D9"/>
<path d="M697.635 1192.77C710.804 1208.51 733.476 1209.54 748.012 1195.05C748.012 1195.05 754.969 1188.12 767.286 1166.78C779.487 1145.65 781.919 1136.58 781.919 1136.58C787.237 1116.76 775.059 1097.6 754.856 1094L627.175 1071.23C606.978 1067.63 601.216 1077.56 614.39 1093.3L697.635 1192.77Z" fill="#FBF0D9"/>
<path d="M581.948 1238.89C581.92 1259.42 598.625 1274.78 619.072 1273.02C619.072 1273.02 628.861 1272.18 652.009 1263.76C674.939 1255.41 682.632 1250.03 682.632 1250.03C699.443 1238.27 702.432 1215.76 689.273 1200.01L606.096 1100.5C592.94 1084.76 582.145 1088.66 582.119 1109.19L581.948 1238.89Z" fill="#FBF0D9"/>
<path d="M463.679 1199.87C450.467 1215.57 453.389 1238.07 470.179 1249.87C470.179 1249.87 478.219 1255.52 501.367 1263.95C524.298 1272.29 533.651 1273.11 533.651 1273.11C554.09 1274.91 570.848 1259.59 570.889 1239.07L571.135 1109.37C571.177 1088.86 560.399 1084.91 547.185 1100.61L463.679 1199.87Z" fill="#FBF0D9"/>
<path d="M398.166 1093.95C377.952 1097.48 365.724 1116.6 371.001 1136.43C371.001 1136.43 373.53 1145.93 385.847 1167.26C398.048 1188.39 404.686 1195.03 404.686 1195.03C419.188 1209.55 441.874 1208.58 455.096 1192.89L538.651 1093.7C551.87 1078.01 546.153 1068.05 525.934 1071.59L398.166 1093.95Z" fill="#FBF0D9"/>
<path d="M416.064 970.696C398.306 960.412 376.65 967.198 367.945 985.782C367.945 985.782 363.78 994.68 359.502 1018.94C355.265 1042.97 356.081 1052.32 356.081 1052.32C357.862 1072.76 375.86 1086.61 396.077 1083.09L523.844 1060.81C544.055 1057.28 546.074 1045.98 528.311 1035.7L416.064 970.696Z" fill="#FBF0D9"/>
<path d="M508.998 887.787C502.006 868.494 481.054 859.772 462.44 868.412C462.44 868.412 453.53 872.551 434.659 888.386C415.966 904.071 410.578 911.761 410.578 911.761C398.804 928.564 403.694 950.737 421.445 961.034L533.64 1026.09C551.387 1036.39 560.197 1029.03 553.201 1009.73L508.998 887.787Z" fill="#FBF0D9"/>
</g>
<g opacity="0.7">
<path d="M2632 1756.85C2505.1 1756.85 2401.85 1860.09 2401.85 1987C2401.85 2113.91 2505.1 2217.14 2632 2217.14C2758.9 2217.14 2862.15 2113.91 2862.15 1987C2862.15 1860.09 2758.9 1756.85 2632 1756.85ZM2632 2237C2494.15 2237 2382 2124.85 2382 1987C2382 1849.15 2494.15 1737 2632 1737C2769.85 1737 2882 1849.15 2882 1987C2882 2124.85 2769.85 2237 2632 2237Z" fill="#FFF0C7"/>
<path d="M2871.73 1987C2871.73 2119.39 2764.39 2226.73 2632 2226.73C2499.61 2226.73 2392.27 2119.39 2392.27 1987C2392.27 1854.61 2499.61 1747.27 2632 1747.27C2764.39 1747.27 2871.73 1854.61 2871.73 1987Z" fill="#F5D6A6"/>
<path d="M2688.48 1810.01C2695.53 1790.74 2685.08 1770.59 2665.27 1765.24C2665.27 1765.24 2655.79 1762.69 2631.15 1762.69C2606.75 1762.69 2597.68 1765.11 2597.68 1765.11C2577.86 1770.42 2567.35 1790.54 2574.33 1809.84L2618.46 1931.8C2625.44 1951.09 2636.92 1951.12 2643.96 1931.84L2688.48 1810.01Z" fill="#FBF0D9"/>
<path d="M2786.27 1887.14C2804.06 1876.9 2809.01 1854.75 2797.27 1837.92C2797.27 1837.92 2791.64 1829.86 2772.77 1814.03C2754.08 1798.34 2745.57 1794.37 2745.57 1794.37C2726.98 1785.7 2705.99 1794.36 2698.94 1813.63L2654.35 1935.42C2647.29 1954.68 2656.07 1962.08 2673.86 1951.84L2786.27 1887.14Z" fill="#FBF0D9"/>
<path d="M2811.61 2009.07C2831.81 2012.67 2849.84 1998.88 2851.67 1978.44C2851.67 1978.44 2852.54 1968.66 2848.26 1944.4C2844.02 1920.36 2840.06 1911.85 2840.06 1911.85C2831.39 1893.26 2809.74 1886.4 2791.95 1896.63L2679.51 1961.26C2661.72 1971.48 2663.69 1982.79 2683.9 1986.38L2811.61 2009.07Z" fill="#FBF0D9"/>
<path d="M2752.63 2118.77C2765.8 2134.51 2788.47 2135.54 2803.01 2121.05C2803.01 2121.05 2809.97 2114.12 2822.28 2092.78C2834.49 2071.65 2836.92 2062.58 2836.92 2062.58C2842.24 2042.76 2830.06 2023.6 2809.86 2020L2682.17 1997.23C2661.98 1993.63 2656.22 2003.56 2669.39 2019.3L2752.63 2118.77Z" fill="#FBF0D9"/>
<path d="M2636.95 2164.89C2636.92 2185.42 2653.63 2200.78 2674.07 2199.02C2674.07 2199.02 2683.86 2198.18 2707.01 2189.76C2729.94 2181.41 2737.63 2176.03 2737.63 2176.03C2754.44 2164.27 2757.43 2141.76 2744.27 2126.01L2661.1 2026.5C2647.94 2010.76 2637.15 2014.66 2637.12 2035.19L2636.95 2164.89Z" fill="#FBF0D9"/>
<path d="M2518.68 2125.87C2505.47 2141.57 2508.39 2164.07 2525.18 2175.87C2525.18 2175.87 2533.22 2181.52 2556.37 2189.95C2579.3 2198.29 2588.65 2199.11 2588.65 2199.11C2609.09 2200.91 2625.85 2185.59 2625.89 2165.07L2626.13 2035.37C2626.18 2014.86 2615.4 2010.91 2602.18 2026.61L2518.68 2125.87Z" fill="#FBF0D9"/>
<path d="M2453.17 2019.95C2432.95 2023.48 2420.72 2042.6 2426 2062.43C2426 2062.43 2428.53 2071.93 2440.85 2093.26C2453.05 2114.39 2459.69 2121.03 2459.69 2121.03C2474.19 2135.55 2496.87 2134.58 2510.1 2118.89L2593.65 2019.7C2606.87 2004.01 2601.15 1994.05 2580.93 1997.59L2453.17 2019.95Z" fill="#FBF0D9"/>
<path d="M2471.06 1896.7C2453.31 1886.41 2431.65 1893.2 2422.94 1911.78C2422.94 1911.78 2418.78 1920.68 2414.5 1944.94C2410.26 1968.97 2411.08 1978.32 2411.08 1978.32C2412.86 1998.76 2430.86 2012.61 2451.08 2009.09L2578.84 1986.81C2599.05 1983.28 2601.07 1971.98 2583.31 1961.7L2471.06 1896.7Z" fill="#FBF0D9"/>
<path d="M2564 1813.79C2557.01 1794.49 2536.05 1785.77 2517.44 1794.41C2517.44 1794.41 2508.53 1798.55 2489.66 1814.39C2470.97 1830.07 2465.58 1837.76 2465.58 1837.76C2453.8 1854.56 2458.69 1876.74 2476.45 1887.03L2588.64 1952.09C2606.39 1962.39 2615.2 1955.03 2608.2 1935.73L2564 1813.79Z" fill="#FBF0D9"/>
</g>
<g opacity="0.7">
<path d="M3192.74 2453.97C3128.21 2280.43 2934.52 2191.74 2760.97 2256.28C2587.43 2320.81 2498.76 2514.51 2563.3 2688.05C2627.83 2861.58 2821.51 2950.28 2995.06 2885.75C3168.6 2821.21 3257.27 2627.51 3192.74 2453.97ZM2536.13 2698.15C2466.03 2509.63 2562.37 2299.24 2750.88 2229.13C2939.39 2159.03 3149.79 2255.36 3219.89 2443.88C3289.99 2632.39 3193.66 2842.79 3005.15 2912.89C2816.64 2982.99 2606.24 2886.66 2536.13 2698.15Z" fill="#FFF0C7"/>
<path d="M2999.92 2898.84C2818.87 2966.17 2617.51 2873.97 2550.18 2692.92C2482.86 2511.87 2575.05 2310.51 2756.1 2243.18C2937.15 2175.86 3138.51 2268.05 3205.84 2449.1C3273.17 2630.15 3180.97 2831.52 2999.92 2898.84Z" fill="#F5D6A6"/>
<path d="M3148.77 2558.25C3178.71 2558.08 3200.96 2533.55 3198.19 2503.74C3198.19 2503.74 3196.86 2489.47 3184.33 2455.78C3171.93 2422.41 3163.99 2411.24 3163.99 2411.24C3146.66 2386.83 3113.79 2382.7 3090.95 2402.06L2946.61 2524.42C2923.78 2543.78 2929.58 2559.49 2959.53 2559.32L3148.77 2558.25Z" fill="#FBF0D9"/>
<path d="M3093.03 2731.2C3116.08 2750.31 3148.88 2745.82 3165.93 2721.21C3165.93 2721.21 3174.08 2709.42 3186.14 2675.56C3198.09 2642.02 3199.19 2628.37 3199.19 2628.37C3201.6 2598.53 3179.08 2574.24 3149.14 2574.38L2959.91 2575.34C2929.98 2575.49 2924.33 2591.25 2947.38 2610.37L3093.03 2731.2Z" fill="#FBF0D9"/>
<path d="M2939.16 2827.86C2944.53 2857.31 2972.55 2874.96 3001.43 2867.06C3001.43 2867.06 3015.25 2863.27 3046.25 2845.08C3076.96 2827.07 3086.58 2817.32 3086.58 2817.32C3107.61 2796.01 3105.97 2762.92 3082.94 2743.79L2937.37 2622.89C2914.35 2603.77 2899.88 2612.21 2905.25 2641.67L2939.16 2827.86Z" fill="#FBF0D9"/>
<path d="M2759.16 2802.99C2744.34 2829.01 2754.46 2860.53 2781.66 2873.04C2781.66 2873.04 2794.69 2879.03 2830.12 2885.03C2865.23 2890.96 2878.87 2889.68 2878.87 2889.68C2908.67 2886.87 2928.68 2860.47 2923.34 2831.01L2889.54 2644.83C2884.19 2615.38 2867.69 2612.55 2852.86 2638.57L2759.16 2802.99Z" fill="#FBF0D9"/>
<path d="M2637.26 2668.25C2609.18 2678.64 2596.67 2709.3 2609.46 2736.37C2609.46 2736.37 2615.59 2749.33 2638.89 2776.7C2661.96 2803.81 2673.23 2811.59 2673.23 2811.59C2697.87 2828.6 2730.17 2821.24 2745.01 2795.24L2838.79 2630.89C2853.63 2604.89 2842.81 2592.11 2814.72 2602.52L2637.26 2668.25Z" fill="#FBF0D9"/>
<path d="M2630.48 2486.66C2602.29 2476.58 2573 2492.02 2565.4 2520.98C2565.4 2520.98 2561.77 2534.85 2562.02 2570.79C2562.27 2606.39 2565.9 2619.6 2565.9 2619.6C2573.84 2648.46 2603.31 2663.59 2631.4 2653.21L2808.88 2587.59C2836.96 2577.22 2836.88 2560.47 2808.68 2550.39L2630.48 2486.66Z" fill="#FBF0D9"/>
<path d="M2742.01 2343.21C2726.9 2317.37 2694.54 2310.37 2670.1 2327.67C2670.1 2327.67 2658.4 2335.95 2635.49 2363.65C2612.8 2391.08 2607.09 2403.53 2607.09 2403.53C2594.62 2430.75 2607.48 2461.28 2635.66 2471.38L2813.8 2535.2C2841.98 2545.3 2852.68 2532.42 2837.56 2506.57L2742.01 2343.21Z" fill="#FBF0D9"/>
<path d="M2919.66 2305.01C2924.7 2275.49 2904.4 2249.33 2874.56 2246.88C2874.56 2246.88 2860.28 2245.71 2824.93 2252.19C2789.91 2258.62 2777.53 2264.49 2777.53 2264.49C2750.48 2277.32 2740.71 2308.97 2755.81 2334.83L2851.25 2498.22C2866.34 2524.07 2882.82 2521.08 2887.85 2491.56L2919.66 2305.01Z" fill="#FBF0D9"/>
<path d="M3080.3 2389.93C3103.13 2370.56 3104.4 2337.47 3083.12 2316.41C3083.12 2316.41 3072.93 2306.33 3041.68 2288.58C3010.72 2270.99 2997.47 2267.54 2997.47 2267.54C2968.5 2259.98 2940.67 2277.94 2935.61 2307.45L2903.7 2493.97C2898.65 2523.47 2913.19 2531.78 2936.02 2512.4L3080.3 2389.93Z" fill="#FBF0D9"/>
</g>
<g opacity="0.7">
<path d="M3114.74 1103.97C3050.21 930.434 2856.52 841.741 2682.97 906.277C2509.43 970.814 2420.76 1164.51 2485.3 1338.05C2549.83 1511.58 2743.51 1600.28 2917.06 1535.75C3090.6 1471.21 3179.27 1277.51 3114.74 1103.97ZM2458.13 1348.15C2388.03 1159.63 2484.37 949.236 2672.88 879.134C2861.39 809.033 3071.79 905.364 3141.89 1093.88C3211.99 1282.39 3115.66 1492.79 2927.15 1562.89C2738.64 1632.99 2528.24 1536.66 2458.13 1348.15Z" fill="#FFF0C7"/>
<path d="M2921.92 1548.84C2740.87 1616.17 2539.51 1523.97 2472.18 1342.92C2404.86 1161.87 2497.05 960.512 2678.1 893.185C2859.15 825.859 3060.51 918.054 3127.84 1099.1C3195.17 1280.15 3102.97 1481.52 2921.92 1548.84Z" fill="#F5D6A6"/>
<path d="M3070.77 1208.25C3100.71 1208.08 3122.96 1183.55 3120.19 1153.74C3120.19 1153.74 3118.86 1139.47 3106.33 1105.78C3093.93 1072.41 3085.99 1061.24 3085.99 1061.24C3068.66 1036.83 3035.79 1032.7 3012.95 1052.06L2868.61 1174.42C2845.78 1193.78 2851.58 1209.49 2881.53 1209.32L3070.77 1208.25Z" fill="#FBF0D9"/>
<path d="M3015.03 1381.2C3038.08 1400.31 3070.88 1395.82 3087.93 1371.21C3087.93 1371.21 3096.08 1359.42 3108.14 1325.56C3120.09 1292.02 3121.19 1278.37 3121.19 1278.37C3123.6 1248.53 3101.08 1224.24 3071.14 1224.38L2881.91 1225.34C2851.98 1225.49 2846.33 1241.25 2869.38 1260.37L3015.03 1381.2Z" fill="#FBF0D9"/>
<path d="M2861.16 1477.86C2866.53 1507.31 2894.55 1524.96 2923.43 1517.06C2923.43 1517.06 2937.25 1513.27 2968.25 1495.08C2998.96 1477.07 3008.58 1467.32 3008.58 1467.32C3029.61 1446.01 3027.97 1412.92 3004.94 1393.79L2859.37 1272.89C2836.35 1253.77 2821.88 1262.21 2827.25 1291.67L2861.16 1477.86Z" fill="#FBF0D9"/>
<path d="M2681.16 1452.99C2666.34 1479.01 2676.46 1510.53 2703.66 1523.04C2703.66 1523.04 2716.69 1529.03 2752.12 1535.03C2787.23 1540.96 2800.87 1539.68 2800.87 1539.68C2830.67 1536.87 2850.68 1510.47 2845.34 1481.01L2811.54 1294.83C2806.19 1265.38 2789.69 1262.55 2774.86 1288.57L2681.16 1452.99Z" fill="#FBF0D9"/>
<path d="M2559.26 1318.25C2531.18 1328.64 2518.67 1359.3 2531.46 1386.37C2531.46 1386.37 2537.59 1399.33 2560.89 1426.7C2583.96 1453.81 2595.23 1461.59 2595.23 1461.59C2619.87 1478.6 2652.17 1471.24 2667.01 1445.24L2760.79 1280.89C2775.63 1254.89 2764.81 1242.11 2736.72 1252.52L2559.26 1318.25Z" fill="#FBF0D9"/>
<path d="M2552.48 1136.66C2524.29 1126.58 2495 1142.02 2487.4 1170.98C2487.4 1170.98 2483.77 1184.85 2484.02 1220.79C2484.27 1256.39 2487.9 1269.6 2487.9 1269.6C2495.84 1298.46 2525.31 1313.59 2553.4 1303.21L2730.88 1237.59C2758.96 1227.22 2758.88 1210.47 2730.68 1200.39L2552.48 1136.66Z" fill="#FBF0D9"/>
<path d="M2664.01 993.21C2648.9 967.365 2616.54 960.366 2592.1 977.668C2592.1 977.668 2580.4 985.954 2557.49 1013.65C2534.8 1041.08 2529.09 1053.53 2529.09 1053.53C2516.62 1080.75 2529.48 1111.28 2557.66 1121.38L2735.8 1185.2C2763.98 1195.3 2774.68 1182.42 2759.56 1156.57L2664.01 993.21Z" fill="#FBF0D9"/>
<path d="M2841.66 955.008C2846.7 925.494 2826.4 899.329 2796.56 896.875C2796.56 896.875 2782.28 895.705 2746.93 902.192C2711.91 908.618 2699.53 914.491 2699.53 914.491C2672.48 927.321 2662.71 958.973 2677.81 984.829L2773.25 1148.22C2788.34 1174.07 2804.82 1171.08 2809.85 1141.56L2841.66 955.008Z" fill="#FBF0D9"/>
<path d="M3002.3 1039.93C3025.13 1020.56 3026.4 987.473 3005.12 966.412C3005.12 966.412 2994.93 956.332 2963.68 938.579C2932.72 920.993 2919.47 917.536 2919.47 917.536C2890.5 909.979 2862.67 927.941 2857.61 957.453L2825.7 1143.97C2820.65 1173.47 2835.19 1181.78 2858.02 1162.4L3002.3 1039.93Z" fill="#FBF0D9"/>
</g>
<g opacity="0.7">
<path d="M513.999 3783.85C387.098 3783.85 283.849 3887.09 283.849 4014C283.849 4140.91 387.098 4244.14 513.999 4244.14C640.9 4244.14 744.152 4140.91 744.152 4014C744.152 3887.09 640.9 3783.85 513.999 3783.85ZM513.999 4264C376.148 4264 264 4151.85 264 4014C264 3876.15 376.148 3764 513.999 3764C651.85 3764 764 3876.15 764 4014C764 4151.85 651.85 4264 513.999 4264Z" fill="#FFF0C7"/>
<path d="M753.725 4014C753.725 4146.39 646.389 4253.73 513.998 4253.73C381.606 4253.73 274.273 4146.39 274.273 4014C274.273 3881.61 381.606 3774.27 513.998 3774.27C646.389 3774.27 753.725 3881.61 753.725 4014Z" fill="#F5D6A6"/>
<path d="M570.485 3837.01C577.529 3817.74 567.086 3797.59 547.273 3792.24C547.273 3792.24 537.786 3789.69 513.153 3789.69C488.75 3789.69 479.68 3792.11 479.68 3792.11C459.86 3797.42 449.353 3817.54 456.332 3836.84L500.459 3958.8C507.437 3978.09 518.916 3978.12 525.961 3958.84L570.485 3837.01Z" fill="#FBF0D9"/>
<path d="M668.273 3914.14C686.059 3903.9 691.01 3881.75 679.268 3864.92C679.268 3864.92 673.645 3856.86 654.774 3841.03C636.081 3825.34 627.572 3821.37 627.572 3821.37C608.98 3812.7 587.993 3821.36 580.935 3840.63L536.346 3962.42C529.29 3981.68 538.067 3989.08 555.856 3978.84L668.273 3914.14Z" fill="#FBF0D9"/>
<path d="M693.608 4036.07C713.813 4039.67 731.842 4025.88 733.666 4005.44C733.666 4005.44 734.537 3995.66 730.259 3971.4C726.022 3947.36 722.056 3938.85 722.056 3938.85C713.391 3920.26 691.744 3913.4 673.951 3923.63L561.509 3988.26C543.721 3998.48 545.69 4009.79 565.899 4013.38L693.608 4036.07Z" fill="#FBF0D9"/>
<path d="M634.635 4145.77C647.804 4161.51 670.476 4162.54 685.012 4148.05C685.012 4148.05 691.969 4141.12 704.286 4119.78C716.487 4098.65 718.919 4089.58 718.919 4089.58C724.237 4069.76 712.059 4050.6 691.856 4047L564.175 4024.23C543.978 4020.63 538.216 4030.56 551.39 4046.3L634.635 4145.77Z" fill="#FBF0D9"/>
<path d="M518.948 4191.89C518.92 4212.42 535.625 4227.78 556.072 4226.02C556.072 4226.02 565.861 4225.18 589.009 4216.76C611.939 4208.41 619.632 4203.03 619.632 4203.03C636.443 4191.27 639.432 4168.76 626.273 4153.01L543.096 4053.5C529.94 4037.76 519.145 4041.66 519.119 4062.19L518.948 4191.89Z" fill="#FBF0D9"/>
<path d="M400.679 4152.87C387.467 4168.57 390.389 4191.07 407.179 4202.87C407.179 4202.87 415.219 4208.52 438.367 4216.95C461.298 4225.29 470.651 4226.11 470.651 4226.11C491.09 4227.91 507.848 4212.59 507.889 4192.07L508.135 4062.37C508.177 4041.86 497.399 4037.91 484.185 4053.61L400.679 4152.87Z" fill="#FBF0D9"/>
<path d="M335.166 4046.95C314.952 4050.48 302.724 4069.6 308.001 4089.43C308.001 4089.43 310.53 4098.93 322.847 4120.26C335.048 4141.39 341.686 4148.03 341.686 4148.03C356.188 4162.55 378.874 4161.58 392.096 4145.89L475.651 4046.7C488.87 4031.01 483.153 4021.05 462.934 4024.59L335.166 4046.95Z" fill="#FBF0D9"/>
<path d="M353.064 3923.7C335.306 3913.41 313.65 3920.2 304.945 3938.78C304.945 3938.78 300.78 3947.68 296.502 3971.94C292.265 3995.97 293.081 4005.32 293.081 4005.32C294.862 4025.76 312.86 4039.61 333.077 4036.09L460.844 4013.81C481.055 4010.28 483.074 3998.98 465.311 3988.7L353.064 3923.7Z" fill="#FBF0D9"/>
<path d="M445.998 3840.79C439.006 3821.49 418.054 3812.77 399.44 3821.41C399.44 3821.41 390.53 3825.55 371.659 3841.39C352.966 3857.07 347.578 3864.76 347.578 3864.76C335.804 3881.56 340.694 3903.74 358.445 3914.03L470.64 3979.09C488.387 3989.39 497.197 3982.03 490.201 3962.73L445.998 3840.79Z" fill="#FBF0D9"/>
</g>
<g opacity="0.7">
<path d="M576.741 1643.97C512.207 1470.43 318.519 1381.74 144.975 1446.28C-28.5722 1510.81 -117.237 1704.51 -52.7032 1878.05C11.8309 2051.58 205.51 2140.28 379.057 2075.75C552.601 2011.21 641.275 1817.51 576.741 1643.97ZM-79.8654 1888.15C-149.968 1699.63 -53.6301 1489.24 134.881 1419.13C323.39 1349.03 533.788 1445.36 603.891 1633.88C673.994 1822.39 577.659 2032.79 389.151 2102.89C200.639 2172.99 -9.76268 2076.66 -79.8654 1888.15Z" fill="#FFF0C7"/>
<path d="M383.922 2088.84C202.874 2156.17 1.50978 2063.97 -65.8163 1882.92C-133.142 1701.87 -40.9456 1500.51 140.102 1433.18C321.149 1365.86 522.515 1458.05 589.841 1639.1C657.167 1820.15 564.969 2021.52 383.922 2088.84Z" fill="#F5D6A6"/>
<path d="M532.773 1748.25C562.713 1748.08 584.956 1723.55 582.191 1693.74C582.191 1693.74 580.863 1679.47 568.336 1645.78C555.926 1612.41 547.993 1601.24 547.993 1601.24C530.662 1576.83 497.793 1572.7 474.952 1592.06L330.614 1714.42C307.779 1733.78 313.582 1749.49 343.529 1749.32L532.773 1748.25Z" fill="#FBF0D9"/>
<path d="M477.033 1921.2C500.077 1940.31 532.882 1935.82 549.928 1911.21C549.928 1911.21 558.085 1899.42 570.142 1865.56C582.086 1832.02 583.188 1818.37 583.188 1818.37C585.6 1788.53 563.077 1764.24 533.137 1764.38L343.913 1765.34C313.981 1765.49 308.327 1781.25 331.377 1800.37L477.033 1921.2Z" fill="#FBF0D9"/>
<path d="M323.163 2017.86C328.528 2047.31 356.546 2064.96 385.426 2057.06C385.426 2057.06 399.251 2053.27 430.251 2035.08C460.96 2017.07 470.581 2007.32 470.581 2007.32C491.609 1986.01 489.97 1952.92 466.94 1933.79L321.371 1812.89C298.347 1793.77 283.882 1802.21 289.25 1831.67L323.163 2017.86Z" fill="#FBF0D9"/>
<path d="M143.163 1992.99C128.338 2019.01 138.459 2050.53 165.661 2063.04C165.661 2063.04 178.685 2069.03 214.123 2075.03C249.227 2080.96 262.866 2079.68 262.866 2079.68C292.669 2076.87 312.682 2050.47 307.338 2021.01L273.537 1834.83C268.194 1805.38 251.686 1802.55 236.86 1828.57L143.163 1992.99Z" fill="#FBF0D9"/>
<path d="M21.2568 1858.25C-6.81998 1868.64 -19.3326 1899.3 -6.5372 1926.37C-6.5372 1926.37 -0.407561 1939.33 22.8856 1966.7C45.9602 1993.81 57.2347 2001.59 57.2347 2001.59C81.8688 2018.6 114.169 2011.24 129.011 1985.24L222.794 1820.89C237.632 1794.89 226.806 1782.11 198.723 1792.52L21.2568 1858.25Z" fill="#FBF0D9"/>
<path d="M14.4832 1676.66C-13.7085 1666.58 -42.9993 1682.02 -50.5976 1710.98C-50.5976 1710.98 -54.2311 1724.85 -53.981 1760.79C-53.7333 1796.39 -50.0987 1809.6 -50.0987 1809.6C-42.1604 1838.46 -12.6869 1853.59 15.3974 1843.21L192.882 1777.59C220.958 1767.22 220.879 1750.47 192.68 1740.39L14.4832 1676.66Z" fill="#FBF0D9"/>
<path d="M126.014 1533.21C110.899 1507.37 78.5353 1500.37 54.0986 1517.67C54.0986 1517.67 42.4021 1525.95 19.4921 1553.65C-3.20292 1581.08 -8.9089 1593.53 -8.9089 1593.53C-21.3808 1620.75 -8.52493 1651.28 19.6602 1661.38L197.799 1725.2C225.977 1735.3 236.682 1722.42 221.561 1696.57L126.014 1533.21Z" fill="#FBF0D9"/>
<path d="M303.663 1495.01C308.696 1465.49 288.403 1439.33 258.563 1436.88C258.563 1436.88 244.276 1435.7 208.926 1442.19C173.907 1448.62 161.531 1454.49 161.531 1454.49C134.484 1467.32 124.707 1498.97 139.805 1524.83L235.246 1688.22C250.34 1714.07 266.82 1711.08 271.853 1681.56L303.663 1495.01Z" fill="#FBF0D9"/>
<path d="M464.304 1579.93C487.131 1560.56 488.404 1527.47 467.122 1506.41C467.122 1506.41 456.93 1496.33 425.68 1478.58C394.724 1460.99 381.467 1457.54 381.467 1457.54C352.502 1449.98 324.667 1467.94 319.613 1497.45L287.698 1683.97C282.645 1713.47 297.189 1721.78 320.02 1702.4L464.304 1579.93Z" fill="#FBF0D9"/>
</g>
<g opacity="0.7">
<path d="M471.741 4596.97C407.207 4423.43 213.519 4334.74 39.9748 4399.28C-133.572 4463.81 -222.237 4657.51 -157.703 4831.05C-93.1691 5004.58 100.51 5093.28 274.057 5028.75C447.601 4964.21 536.275 4770.51 471.741 4596.97ZM-184.865 4841.15C-254.968 4652.63 -158.63 4442.24 29.881 4372.13C218.39 4302.03 428.788 4398.36 498.891 4586.88C568.994 4775.39 472.659 4985.79 284.151 5055.89C95.6394 5125.99 -114.763 5029.66 -184.865 4841.15Z" fill="#FFF0C7"/>
<path d="M278.922 5041.84C97.8745 5109.17 -103.49 5016.97 -170.816 4835.92C-238.142 4654.87 -145.946 4453.51 35.1019 4386.18C216.149 4318.86 417.515 4411.05 484.841 4592.1C552.167 4773.15 459.969 4974.52 278.922 5041.84Z" fill="#F5D6A6"/>
<path d="M427.773 4701.25C457.713 4701.08 479.956 4676.55 477.191 4646.74C477.191 4646.74 475.863 4632.47 463.336 4598.78C450.926 4565.41 442.993 4554.24 442.993 4554.24C425.662 4529.83 392.793 4525.7 369.952 4545.06L225.614 4667.42C202.779 4686.78 208.582 4702.49 238.529 4702.32L427.773 4701.25Z" fill="#FBF0D9"/>
<path d="M372.033 4874.2C395.077 4893.31 427.882 4888.82 444.928 4864.21C444.928 4864.21 453.085 4852.42 465.142 4818.56C477.086 4785.02 478.188 4771.37 478.188 4771.37C480.6 4741.53 458.077 4717.24 428.137 4717.38L238.913 4718.34C208.981 4718.49 203.327 4734.25 226.377 4753.37L372.033 4874.2Z" fill="#FBF0D9"/>
<path d="M218.163 4970.86C223.528 5000.31 251.546 5017.96 280.426 5010.06C280.426 5010.06 294.251 5006.27 325.251 4988.08C355.96 4970.07 365.581 4960.32 365.581 4960.32C386.609 4939.01 384.97 4905.92 361.94 4886.79L216.371 4765.89C193.347 4746.77 178.882 4755.21 184.25 4784.67L218.163 4970.86Z" fill="#FBF0D9"/>
<path d="M38.1626 4945.99C23.3383 4972.01 33.4587 5003.53 60.6607 5016.04C60.6607 5016.04 73.6854 5022.03 109.123 5028.03C144.227 5033.96 157.866 5032.68 157.866 5032.68C187.669 5029.87 207.682 5003.47 202.338 4974.01L168.537 4787.83C163.194 4758.38 146.686 4755.55 131.86 4781.57L38.1626 4945.99Z" fill="#FBF0D9"/>
<path d="M-83.7432 4811.25C-111.82 4821.64 -124.333 4852.3 -111.537 4879.37C-111.537 4879.37 -105.408 4892.33 -82.1144 4919.7C-59.0398 4946.81 -47.7653 4954.59 -47.7653 4954.59C-23.1312 4971.6 9.16883 4964.24 24.0113 4938.24L117.794 4773.89C132.632 4747.89 121.806 4735.11 93.7233 4745.52L-83.7432 4811.25Z" fill="#FBF0D9"/>
<path d="M-90.5168 4629.66C-118.708 4619.58 -147.999 4635.02 -155.598 4663.98C-155.598 4663.98 -159.231 4677.85 -158.981 4713.79C-158.733 4749.39 -155.099 4762.6 -155.099 4762.6C-147.16 4791.46 -117.687 4806.59 -89.6026 4796.21L87.8816 4730.59C115.958 4720.22 115.879 4703.47 87.6801 4693.39L-90.5168 4629.66Z" fill="#FBF0D9"/>
<path d="M21.0143 4486.21C5.89884 4460.37 -26.4647 4453.37 -50.9014 4470.67C-50.9014 4470.67 -62.5979 4478.95 -85.5079 4506.65C-108.203 4534.08 -113.909 4546.53 -113.909 4546.53C-126.381 4573.75 -113.525 4604.28 -85.3398 4614.38L92.7994 4678.2C120.977 4688.3 131.682 4675.42 116.561 4649.57L21.0143 4486.21Z" fill="#FBF0D9"/>
<path d="M198.663 4448.01C203.696 4418.49 183.403 4392.33 153.563 4389.88C153.563 4389.88 139.276 4388.7 103.926 4395.19C68.9073 4401.62 56.5306 4407.49 56.5306 4407.49C29.4843 4420.32 19.7072 4451.97 34.8051 4477.83L130.246 4641.22C145.34 4667.07 161.82 4664.08 166.853 4634.56L198.663 4448.01Z" fill="#FBF0D9"/>
<path d="M359.304 4532.93C382.131 4513.56 383.404 4480.47 362.122 4459.41C362.122 4459.41 351.93 4449.33 320.68 4431.58C289.724 4413.99 276.467 4410.54 276.467 4410.54C247.502 4402.98 219.667 4420.94 214.613 4450.45L182.698 4636.97C177.645 4666.47 192.189 4674.78 215.02 4655.4L359.304 4532.93Z" fill="#FBF0D9"/>
</g>
<g opacity="0.7">
<path d="M576.741 351.973C512.207 178.434 318.519 89.7407 144.975 154.277C-28.5722 218.814 -117.237 412.507 -52.7032 586.046C11.8309 759.585 205.51 848.285 379.057 783.747C552.601 719.211 641.275 525.512 576.741 351.973ZM-79.8654 596.147C-149.968 407.633 -53.6301 197.236 134.881 127.134C323.39 57.0329 533.788 153.364 603.891 341.877C673.994 530.39 577.659 740.789 389.151 810.89C200.639 880.992 -9.76268 784.66 -79.8654 596.147Z" fill="#FFF0C7"/>
<path d="M383.922 796.842C202.874 864.168 1.50978 771.967 -65.8163 590.92C-133.142 409.874 -40.9456 208.511 140.102 141.185C321.149 73.8586 522.515 166.054 589.841 347.1C657.167 528.147 564.969 729.516 383.922 796.842Z" fill="#F5D6A6"/>
<path d="M532.773 456.25C562.713 456.082 584.956 431.554 582.191 401.74C582.191 401.74 580.863 387.467 568.336 353.781C555.926 320.41 547.993 309.241 547.993 309.241C530.662 284.834 497.793 280.701 474.952 300.06L330.614 422.424C307.779 441.777 313.582 457.488 343.529 457.318L532.773 456.25Z" fill="#FBF0D9"/>
<path d="M477.033 629.198C500.077 648.314 532.882 643.822 549.928 619.206C549.928 619.206 558.085 607.419 570.142 573.561C582.086 540.021 583.188 526.366 583.188 526.366C585.6 496.528 563.077 472.235 533.137 472.383L343.913 473.34C313.981 473.488 308.327 489.253 331.377 508.372L477.033 629.198Z" fill="#FBF0D9"/>
<path d="M323.163 725.855C328.528 755.311 356.546 772.957 385.426 765.057C385.426 765.057 399.251 761.27 430.251 743.084C460.96 725.068 470.581 715.316 470.581 715.316C491.609 694.01 489.97 660.923 466.94 641.79L321.371 520.893C298.347 501.766 283.882 510.209 289.25 539.671L323.163 725.855Z" fill="#FBF0D9"/>
<path d="M143.163 700.993C128.338 727.006 138.459 758.533 165.661 771.045C165.661 771.045 178.685 777.031 214.123 783.025C249.227 788.964 262.866 787.678 262.866 787.678C292.669 784.872 312.682 758.473 307.338 729.013L273.537 542.831C268.194 513.379 251.686 510.548 236.86 536.568L143.163 700.993Z" fill="#FBF0D9"/>
<path d="M21.2568 566.246C-6.81998 576.644 -19.3326 607.301 -6.5372 634.37C-6.5372 634.37 -0.407561 647.328 22.8856 674.699C45.9602 701.813 57.2347 709.595 57.2347 709.595C81.8688 726.602 114.169 719.244 129.011 693.241L222.794 528.89C237.632 502.894 226.806 490.114 198.723 500.517L21.2568 566.246Z" fill="#FBF0D9"/>
<path d="M14.4832 384.663C-13.7085 374.581 -42.9993 390.022 -50.5976 418.984C-50.5976 418.984 -54.2311 432.85 -53.981 468.79C-53.7333 504.392 -50.0987 517.601 -50.0987 517.601C-42.1604 546.464 -12.6869 561.589 15.3974 551.21L192.882 485.592C220.958 475.216 220.879 458.467 192.68 448.385L14.4832 384.663Z" fill="#FBF0D9"/>
<path d="M126.014 241.209C110.899 215.365 78.5353 208.366 54.0986 225.667C54.0986 225.667 42.4021 233.954 19.4921 261.646C-3.20292 289.078 -8.9089 301.533 -8.9089 301.533C-21.3808 328.746 -8.52493 359.278 19.6602 369.379L197.799 433.198C225.977 443.297 236.682 430.416 221.561 404.566L126.014 241.209Z" fill="#FBF0D9"/>
<path d="M303.663 203.007C308.696 173.493 288.403 147.329 258.563 144.875C258.563 144.875 244.276 143.705 208.926 150.192C173.907 156.618 161.531 162.491 161.531 162.491C134.484 175.321 124.707 206.973 139.805 232.828L235.246 396.222C250.34 422.07 266.82 419.084 271.853 389.562L303.663 203.007Z" fill="#FBF0D9"/>
<path d="M464.304 287.934C487.131 268.56 488.404 235.473 467.122 214.412C467.122 214.412 456.93 204.332 425.68 186.579C394.724 168.992 381.467 165.536 381.467 165.536C352.502 157.979 324.667 175.941 319.613 205.452L287.698 391.967C282.645 421.47 297.189 429.776 320.02 410.396L464.304 287.934Z" fill="#FBF0D9"/>
</g>
<g opacity="0.7">
<path d="M3196.74 3856.97C3132.21 3683.43 2938.52 3594.74 2764.97 3659.28C2591.43 3723.81 2502.76 3917.51 2567.3 4091.05C2631.83 4264.58 2825.51 4353.28 2999.06 4288.75C3172.6 4224.21 3261.27 4030.51 3196.74 3856.97ZM2540.13 4101.15C2470.03 3912.63 2566.37 3702.24 2754.88 3632.13C2943.39 3562.03 3153.79 3658.36 3223.89 3846.88C3293.99 4035.39 3197.66 4245.79 3009.15 4315.89C2820.64 4385.99 2610.24 4289.66 2540.13 4101.15Z" fill="#FFF0C7"/>
<path d="M3003.92 4301.84C2822.87 4369.17 2621.51 4276.97 2554.18 4095.92C2486.86 3914.87 2579.05 3713.51 2760.1 3646.18C2941.15 3578.86 3142.51 3671.05 3209.84 3852.1C3277.16 4033.15 3184.97 4234.52 3003.92 4301.84Z" fill="#F5D6A6"/>
<path d="M3152.77 3961.25C3182.71 3961.08 3204.96 3936.55 3202.19 3906.74C3202.19 3906.74 3200.86 3892.47 3188.33 3858.78C3175.93 3825.41 3167.99 3814.24 3167.99 3814.24C3150.66 3789.83 3117.79 3785.7 3094.95 3805.06L2950.61 3927.42C2927.78 3946.78 2933.58 3962.49 2963.53 3962.32L3152.77 3961.25Z" fill="#FBF0D9"/>
<path d="M3097.03 4134.2C3120.07 4153.31 3152.88 4148.82 3169.93 4124.21C3169.93 4124.21 3178.08 4112.42 3190.14 4078.56C3202.08 4045.02 3203.19 4031.37 3203.19 4031.37C3205.6 4001.53 3183.08 3977.24 3153.13 3977.38L2963.91 3978.34C2933.98 3978.49 2928.33 3994.25 2951.38 4013.37L3097.03 4134.2Z" fill="#FBF0D9"/>
<path d="M2943.16 4230.86C2948.53 4260.31 2976.55 4277.96 3005.43 4270.06C3005.43 4270.06 3019.25 4266.27 3050.25 4248.08C3080.96 4230.07 3090.58 4220.32 3090.58 4220.32C3111.61 4199.01 3109.97 4165.92 3086.94 4146.79L2941.37 4025.89C2918.35 4006.77 2903.88 4015.21 2909.25 4044.67L2943.16 4230.86Z" fill="#FBF0D9"/>
<path d="M2763.16 4205.99C2748.34 4232.01 2758.46 4263.53 2785.66 4276.04C2785.66 4276.04 2798.69 4282.03 2834.12 4288.03C2869.23 4293.96 2882.87 4292.68 2882.87 4292.68C2912.67 4289.87 2932.68 4263.47 2927.34 4234.01L2893.54 4047.83C2888.19 4018.38 2871.69 4015.55 2856.86 4041.57L2763.16 4205.99Z" fill="#FBF0D9"/>
<path d="M2641.25 4071.25C2613.18 4081.64 2600.67 4112.3 2613.46 4139.37C2613.46 4139.37 2619.59 4152.33 2642.88 4179.7C2665.96 4206.81 2677.23 4214.59 2677.23 4214.59C2701.87 4231.6 2734.17 4224.24 2749.01 4198.24L2842.79 4033.89C2857.63 4007.89 2846.8 3995.11 2818.72 4005.52L2641.25 4071.25Z" fill="#FBF0D9"/>
<path d="M2634.48 3889.66C2606.29 3879.58 2577 3895.02 2569.4 3923.98C2569.4 3923.98 2565.77 3937.85 2566.02 3973.79C2566.27 4009.39 2569.9 4022.6 2569.9 4022.6C2577.84 4051.46 2607.31 4066.59 2635.4 4056.21L2812.88 3990.59C2840.96 3980.22 2840.88 3963.47 2812.68 3953.39L2634.48 3889.66Z" fill="#FBF0D9"/>
<path d="M2746.01 3746.21C2730.9 3720.37 2698.53 3713.37 2674.1 3730.67C2674.1 3730.67 2662.4 3738.95 2639.49 3766.65C2616.8 3794.08 2611.09 3806.53 2611.09 3806.53C2598.62 3833.75 2611.47 3864.28 2639.66 3874.38L2817.8 3938.2C2845.98 3948.3 2856.68 3935.42 2841.56 3909.57L2746.01 3746.21Z" fill="#FBF0D9"/>
<path d="M2923.66 3708.01C2928.7 3678.49 2908.4 3652.33 2878.56 3649.88C2878.56 3649.88 2864.28 3648.7 2828.93 3655.19C2793.91 3661.62 2781.53 3667.49 2781.53 3667.49C2754.48 3680.32 2744.71 3711.97 2759.81 3737.83L2855.25 3901.22C2870.34 3927.07 2886.82 3924.08 2891.85 3894.56L2923.66 3708.01Z" fill="#FBF0D9"/>
<path d="M3084.3 3792.93C3107.13 3773.56 3108.4 3740.47 3087.12 3719.41C3087.12 3719.41 3076.93 3709.33 3045.68 3691.58C3014.72 3673.99 3001.47 3670.54 3001.47 3670.54C2972.5 3662.98 2944.66 3680.94 2939.61 3710.45L2907.7 3896.97C2902.64 3926.47 2917.19 3934.78 2940.02 3915.4L3084.3 3792.93Z" fill="#FBF0D9"/>
</g>
<g opacity="0.7">
<path d="M2628 324.853C2501.1 324.853 2397.85 428.093 2397.85 554.998C2397.85 681.905 2501.1 785.138 2628 785.138C2754.9 785.138 2858.15 681.905 2858.15 554.998C2858.15 428.093 2754.9 324.853 2628 324.853ZM2628 805C2490.15 805 2378 692.848 2378 554.998C2378 417.15 2490.15 305 2628 305C2765.85 305 2878 417.15 2878 554.998C2878 692.848 2765.85 805 2628 805Z" fill="#FFF0C7"/>
<path d="M2867.73 555.001C2867.73 687.393 2760.39 794.726 2628 794.726C2495.61 794.726 2388.27 687.393 2388.27 555.001C2388.27 422.609 2495.61 315.274 2628 315.274C2760.39 315.274 2867.73 422.609 2867.73 555.001Z" fill="#F5D6A6"/>
<path d="M2684.48 378.01C2691.53 358.736 2681.08 338.587 2661.27 333.241C2661.27 333.241 2651.79 330.685 2627.15 330.685C2602.75 330.685 2593.68 333.113 2593.68 333.113C2573.86 338.416 2563.35 358.545 2570.33 377.843L2614.46 499.8C2621.44 519.093 2632.92 519.118 2639.96 499.839L2684.48 378.01Z" fill="#FBF0D9"/>
<path d="M2782.27 455.135C2800.06 444.899 2805.01 422.751 2793.27 405.92C2793.27 405.92 2787.64 397.864 2768.77 382.03C2750.08 366.344 2741.57 362.374 2741.57 362.374C2722.98 353.696 2701.99 362.362 2694.94 381.631L2650.35 503.42C2643.29 522.684 2652.07 530.083 2669.86 519.842L2782.27 455.135Z" fill="#FBF0D9"/>
<path d="M2807.61 577.075C2827.81 580.665 2845.84 566.882 2847.67 546.441C2847.67 546.441 2848.54 536.655 2844.26 512.396C2840.02 488.364 2836.06 479.853 2836.06 479.853C2827.39 461.255 2805.74 454.403 2787.95 464.628L2675.51 529.262C2657.72 539.483 2659.69 550.793 2679.9 554.383L2807.61 577.075Z" fill="#FBF0D9"/>
<path d="M2748.63 686.77C2761.8 702.508 2784.47 703.538 2799.01 689.052C2799.01 689.052 2805.97 682.115 2818.28 660.782C2830.49 639.649 2832.92 630.58 2832.92 630.58C2838.24 610.763 2826.06 591.6 2805.86 587.995L2678.17 565.232C2657.98 561.628 2652.22 571.557 2665.39 587.297L2748.63 686.77Z" fill="#FBF0D9"/>
<path d="M2632.95 732.895C2632.92 753.416 2649.63 768.778 2670.07 767.025C2670.07 767.025 2679.86 766.182 2703.01 757.757C2725.94 749.411 2733.63 744.027 2733.63 744.027C2750.44 732.265 2753.43 709.757 2740.27 694.01L2657.1 594.5C2643.94 578.757 2633.15 582.659 2633.12 603.185L2632.95 732.895Z" fill="#FBF0D9"/>
<path d="M2514.68 693.866C2501.47 709.568 2504.39 732.074 2521.18 743.874C2521.18 743.874 2529.22 749.521 2552.37 757.946C2575.3 766.292 2584.65 767.113 2584.65 767.113C2605.09 768.909 2621.85 753.588 2621.89 733.066L2622.13 603.372C2622.18 582.856 2611.4 578.906 2598.18 594.613L2514.68 693.866Z" fill="#FBF0D9"/>
<path d="M2449.17 587.947C2428.95 591.483 2416.72 610.602 2422 630.433C2422 630.433 2424.53 639.927 2436.85 661.26C2449.05 682.393 2455.69 689.034 2455.69 689.034C2470.19 703.548 2492.87 702.583 2506.1 686.889L2589.65 587.696C2602.87 572.007 2597.15 562.052 2576.93 565.591L2449.17 587.947Z" fill="#FBF0D9"/>
<path d="M2467.06 464.696C2449.31 454.412 2427.65 461.198 2418.94 479.782C2418.94 479.782 2414.78 488.68 2410.5 512.939C2406.26 536.971 2407.08 546.325 2407.08 546.325C2408.86 566.765 2426.86 580.607 2447.08 577.085L2574.84 554.806C2595.05 551.285 2597.07 539.984 2579.31 529.699L2467.06 464.696Z" fill="#FBF0D9"/>
<path d="M2560 381.787C2553.01 362.494 2532.05 353.772 2513.44 362.412C2513.44 362.412 2504.53 366.551 2485.66 382.386C2466.97 398.071 2461.58 405.761 2461.58 405.761C2449.8 422.564 2454.69 444.737 2472.45 455.034L2584.64 520.094C2602.39 530.388 2611.2 523.029 2604.2 503.732L2560 381.787Z" fill="#FBF0D9"/>
</g>
<g opacity="0.7">
<path d="M2600 3059.85C2473.1 3059.85 2369.85 3163.09 2369.85 3290C2369.85 3416.91 2473.1 3520.14 2600 3520.14C2726.9 3520.14 2830.15 3416.91 2830.15 3290C2830.15 3163.09 2726.9 3059.85 2600 3059.85ZM2600 3540C2462.15 3540 2350 3427.85 2350 3290C2350 3152.15 2462.15 3040 2600 3040C2737.85 3040 2850 3152.15 2850 3290C2850 3427.85 2737.85 3540 2600 3540Z" fill="#FFF0C7"/>
<path d="M2839.73 3290C2839.73 3422.39 2732.39 3529.73 2600 3529.73C2467.61 3529.73 2360.27 3422.39 2360.27 3290C2360.27 3157.61 2467.61 3050.27 2600 3050.27C2732.39 3050.27 2839.73 3157.61 2839.73 3290Z" fill="#F5D6A6"/>
<path d="M2656.48 3113.01C2663.53 3093.74 2653.08 3073.59 2633.27 3068.24C2633.27 3068.24 2623.79 3065.69 2599.15 3065.69C2574.75 3065.69 2565.68 3068.11 2565.68 3068.11C2545.86 3073.42 2535.35 3093.54 2542.33 3112.84L2586.46 3234.8C2593.44 3254.09 2604.92 3254.12 2611.96 3234.84L2656.48 3113.01Z" fill="#FBF0D9"/>
<path d="M2754.27 3190.14C2772.06 3179.9 2777.01 3157.75 2765.27 3140.92C2765.27 3140.92 2759.64 3132.86 2740.77 3117.03C2722.08 3101.34 2713.57 3097.37 2713.57 3097.37C2694.98 3088.7 2673.99 3097.36 2666.94 3116.63L2622.35 3238.42C2615.29 3257.68 2624.07 3265.08 2641.86 3254.84L2754.27 3190.14Z" fill="#FBF0D9"/>
<path d="M2779.61 3312.07C2799.81 3315.67 2817.84 3301.88 2819.67 3281.44C2819.67 3281.44 2820.54 3271.66 2816.26 3247.4C2812.02 3223.36 2808.06 3214.85 2808.06 3214.85C2799.39 3196.26 2777.74 3189.4 2759.95 3199.63L2647.51 3264.26C2629.72 3274.48 2631.69 3285.79 2651.9 3289.38L2779.61 3312.07Z" fill="#FBF0D9"/>
<path d="M2720.63 3421.77C2733.8 3437.51 2756.47 3438.54 2771.01 3424.05C2771.01 3424.05 2777.97 3417.12 2790.28 3395.78C2802.49 3374.65 2804.92 3365.58 2804.92 3365.58C2810.24 3345.76 2798.06 3326.6 2777.86 3323L2650.17 3300.23C2629.98 3296.63 2624.22 3306.56 2637.39 3322.3L2720.63 3421.77Z" fill="#FBF0D9"/>
<path d="M2604.95 3467.89C2604.92 3488.42 2621.63 3503.78 2642.07 3502.02C2642.07 3502.02 2651.86 3501.18 2675.01 3492.76C2697.94 3484.41 2705.63 3479.03 2705.63 3479.03C2722.44 3467.27 2725.43 3444.76 2712.27 3429.01L2629.1 3329.5C2615.94 3313.76 2605.15 3317.66 2605.12 3338.19L2604.95 3467.89Z" fill="#FBF0D9"/>
<path d="M2486.68 3428.87C2473.47 3444.57 2476.39 3467.07 2493.18 3478.87C2493.18 3478.87 2501.22 3484.52 2524.37 3492.95C2547.3 3501.29 2556.65 3502.11 2556.65 3502.11C2577.09 3503.91 2593.85 3488.59 2593.89 3468.07L2594.13 3338.37C2594.18 3317.86 2583.4 3313.91 2570.18 3329.61L2486.68 3428.87Z" fill="#FBF0D9"/>
<path d="M2421.17 3322.95C2400.95 3326.48 2388.72 3345.6 2394 3365.43C2394 3365.43 2396.53 3374.93 2408.85 3396.26C2421.05 3417.39 2427.69 3424.03 2427.69 3424.03C2442.19 3438.55 2464.87 3437.58 2478.1 3421.89L2561.65 3322.7C2574.87 3307.01 2569.15 3297.05 2548.93 3300.59L2421.17 3322.95Z" fill="#FBF0D9"/>
<path d="M2439.06 3199.7C2421.31 3189.41 2399.65 3196.2 2390.94 3214.78C2390.94 3214.78 2386.78 3223.68 2382.5 3247.94C2378.26 3271.97 2379.08 3281.32 2379.08 3281.32C2380.86 3301.76 2398.86 3315.61 2419.08 3312.09L2546.84 3289.81C2567.05 3286.28 2569.07 3274.98 2551.31 3264.7L2439.06 3199.7Z" fill="#FBF0D9"/>
<path d="M2532 3116.79C2525.01 3097.49 2504.05 3088.77 2485.44 3097.41C2485.44 3097.41 2476.53 3101.55 2457.66 3117.39C2438.97 3133.07 2433.58 3140.76 2433.58 3140.76C2421.8 3157.56 2426.69 3179.74 2444.45 3190.03L2556.64 3255.09C2574.39 3265.39 2583.2 3258.03 2576.2 3238.73L2532 3116.79Z" fill="#FBF0D9"/>
</g>
<g opacity="0.7">
<path d="M2733 4547.85C2606.1 4547.85 2502.85 4651.09 2502.85 4778C2502.85 4904.91 2606.1 5008.14 2733 5008.14C2859.9 5008.14 2963.15 4904.91 2963.15 4778C2963.15 4651.09 2859.9 4547.85 2733 4547.85ZM2733 5028C2595.15 5028 2483 4915.85 2483 4778C2483 4640.15 2595.15 4528 2733 4528C2870.85 4528 2983 4640.15 2983 4778C2983 4915.85 2870.85 5028 2733 5028Z" fill="#FFF0C7"/>
<path d="M2972.73 4778C2972.73 4910.39 2865.39 5017.73 2733 5017.73C2600.61 5017.73 2493.27 4910.39 2493.27 4778C2493.27 4645.61 2600.61 4538.27 2733 4538.27C2865.39 4538.27 2972.73 4645.61 2972.73 4778Z" fill="#F5D6A6"/>
<path d="M2789.48 4601.01C2796.53 4581.74 2786.08 4561.59 2766.27 4556.24C2766.27 4556.24 2756.79 4553.69 2732.15 4553.69C2707.75 4553.69 2698.68 4556.11 2698.68 4556.11C2678.86 4561.42 2668.35 4581.54 2675.33 4600.84L2719.46 4722.8C2726.44 4742.09 2737.92 4742.12 2744.96 4722.84L2789.48 4601.01Z" fill="#FBF0D9"/>
<path d="M2887.27 4678.14C2905.06 4667.9 2910.01 4645.75 2898.27 4628.92C2898.27 4628.92 2892.64 4620.86 2873.77 4605.03C2855.08 4589.34 2846.57 4585.37 2846.57 4585.37C2827.98 4576.7 2806.99 4585.36 2799.94 4604.63L2755.35 4726.42C2748.29 4745.68 2757.07 4753.08 2774.86 4742.84L2887.27 4678.14Z" fill="#FBF0D9"/>
<path d="M2912.61 4800.07C2932.81 4803.67 2950.84 4789.88 2952.67 4769.44C2952.67 4769.44 2953.54 4759.66 2949.26 4735.4C2945.02 4711.36 2941.06 4702.85 2941.06 4702.85C2932.39 4684.26 2910.74 4677.4 2892.95 4687.63L2780.51 4752.26C2762.72 4762.48 2764.69 4773.79 2784.9 4777.38L2912.61 4800.07Z" fill="#FBF0D9"/>
<path d="M2853.63 4909.77C2866.8 4925.51 2889.47 4926.54 2904.01 4912.05C2904.01 4912.05 2910.97 4905.12 2923.28 4883.78C2935.49 4862.65 2937.92 4853.58 2937.92 4853.58C2943.24 4833.76 2931.06 4814.6 2910.86 4811L2783.17 4788.23C2762.98 4784.63 2757.22 4794.56 2770.39 4810.3L2853.63 4909.77Z" fill="#FBF0D9"/>
<path d="M2737.95 4955.89C2737.92 4976.42 2754.63 4991.78 2775.07 4990.02C2775.07 4990.02 2784.86 4989.18 2808.01 4980.76C2830.94 4972.41 2838.63 4967.03 2838.63 4967.03C2855.44 4955.27 2858.43 4932.76 2845.27 4917.01L2762.1 4817.5C2748.94 4801.76 2738.15 4805.66 2738.12 4826.19L2737.95 4955.89Z" fill="#FBF0D9"/>
<path d="M2619.68 4916.87C2606.47 4932.57 2609.39 4955.07 2626.18 4966.87C2626.18 4966.87 2634.22 4972.52 2657.37 4980.95C2680.3 4989.29 2689.65 4990.11 2689.65 4990.11C2710.09 4991.91 2726.85 4976.59 2726.89 4956.07L2727.13 4826.37C2727.18 4805.86 2716.4 4801.91 2703.18 4817.61L2619.68 4916.87Z" fill="#FBF0D9"/>
<path d="M2554.17 4810.95C2533.95 4814.48 2521.72 4833.6 2527 4853.43C2527 4853.43 2529.53 4862.93 2541.85 4884.26C2554.05 4905.39 2560.69 4912.03 2560.69 4912.03C2575.19 4926.55 2597.87 4925.58 2611.1 4909.89L2694.65 4810.7C2707.87 4795.01 2702.15 4785.05 2681.93 4788.59L2554.17 4810.95Z" fill="#FBF0D9"/>
<path d="M2572.06 4687.7C2554.31 4677.41 2532.65 4684.2 2523.94 4702.78C2523.94 4702.78 2519.78 4711.68 2515.5 4735.94C2511.26 4759.97 2512.08 4769.32 2512.08 4769.32C2513.86 4789.76 2531.86 4803.61 2552.08 4800.09L2679.84 4777.81C2700.05 4774.28 2702.07 4762.98 2684.31 4752.7L2572.06 4687.7Z" fill="#FBF0D9"/>
<path d="M2665 4604.79C2658.01 4585.49 2637.05 4576.77 2618.44 4585.41C2618.44 4585.41 2609.53 4589.55 2590.66 4605.39C2571.97 4621.07 2566.58 4628.76 2566.58 4628.76C2554.8 4645.56 2559.69 4667.74 2577.45 4678.03L2689.64 4743.09C2707.39 4753.39 2716.2 4746.03 2709.2 4726.73L2665 4604.79Z" fill="#FBF0D9"/>
</g>
<g opacity="0.7">
<path d="M489.741 3197.97C425.207 3024.43 231.519 2935.74 57.9748 3000.28C-115.572 3064.81 -204.237 3258.51 -139.703 3432.05C-75.1691 3605.58 118.51 3694.28 292.057 3629.75C465.601 3565.21 554.275 3371.51 489.741 3197.97ZM-166.865 3442.15C-236.968 3253.63 -140.63 3043.24 47.881 2973.13C236.39 2903.03 446.788 2999.36 516.891 3187.88C586.994 3376.39 490.659 3586.79 302.151 3656.89C113.639 3726.99 -96.7627 3630.66 -166.865 3442.15Z" fill="#FFF0C7"/>
<path d="M296.921 3642.84C115.874 3710.17 -85.4912 3617.97 -152.817 3436.92C-220.143 3255.87 -127.947 3054.51 53.1009 2987.18C234.148 2919.86 435.514 3012.05 502.84 3193.1C570.166 3374.15 477.968 3575.52 296.921 3642.84Z" fill="#F5D6A6"/>
<path d="M445.773 3302.25C475.713 3302.08 497.956 3277.55 495.191 3247.74C495.191 3247.74 493.863 3233.47 481.336 3199.78C468.926 3166.41 460.993 3155.24 460.993 3155.24C443.662 3130.83 410.793 3126.7 387.952 3146.06L243.614 3268.42C220.779 3287.78 226.582 3303.49 256.529 3303.32L445.773 3302.25Z" fill="#FBF0D9"/>
<path d="M390.033 3475.2C413.077 3494.31 445.882 3489.82 462.928 3465.21C462.928 3465.21 471.085 3453.42 483.142 3419.56C495.086 3386.02 496.188 3372.37 496.188 3372.37C498.6 3342.53 476.077 3318.24 446.137 3318.38L256.913 3319.34C226.981 3319.49 221.327 3335.25 244.377 3354.37L390.033 3475.2Z" fill="#FBF0D9"/>
<path d="M236.163 3571.86C241.528 3601.31 269.546 3618.96 298.426 3611.06C298.426 3611.06 312.251 3607.27 343.251 3589.08C373.96 3571.07 383.581 3561.32 383.581 3561.32C404.609 3540.01 402.97 3506.92 379.94 3487.79L234.371 3366.89C211.347 3347.77 196.882 3356.21 202.25 3385.67L236.163 3571.86Z" fill="#FBF0D9"/>
<path d="M56.1626 3546.99C41.3383 3573.01 51.4587 3604.53 78.6607 3617.04C78.6607 3617.04 91.6854 3623.03 127.123 3629.03C162.227 3634.96 175.866 3633.68 175.866 3633.68C205.669 3630.87 225.682 3604.47 220.338 3575.01L186.537 3388.83C181.194 3359.38 164.686 3356.55 149.86 3382.57L56.1626 3546.99Z" fill="#FBF0D9"/>
<path d="M-65.7432 3412.25C-93.82 3422.64 -106.333 3453.3 -93.5372 3480.37C-93.5372 3480.37 -87.4076 3493.33 -64.1144 3520.7C-41.0398 3547.81 -29.7653 3555.59 -29.7653 3555.59C-5.13122 3572.6 27.1688 3565.24 42.0113 3539.24L135.794 3374.89C150.632 3348.89 139.806 3336.11 111.723 3346.52L-65.7432 3412.25Z" fill="#FBF0D9"/>
<path d="M-72.5168 3230.66C-100.708 3220.58 -129.999 3236.02 -137.598 3264.98C-137.598 3264.98 -141.231 3278.85 -140.981 3314.79C-140.733 3350.39 -137.099 3363.6 -137.099 3363.6C-129.16 3392.46 -99.6869 3407.59 -71.6026 3397.21L105.882 3331.59C133.958 3321.22 133.879 3304.47 105.68 3294.39L-72.5168 3230.66Z" fill="#FBF0D9"/>
<path d="M39.0143 3087.21C23.8988 3061.37 -8.46468 3054.37 -32.9014 3071.67C-32.9014 3071.67 -44.5979 3079.95 -67.5079 3107.65C-90.2029 3135.08 -95.9089 3147.53 -95.9089 3147.53C-108.381 3174.75 -95.5249 3205.28 -67.3398 3215.38L110.799 3279.2C138.977 3289.3 149.682 3276.42 134.561 3250.57L39.0143 3087.21Z" fill="#FBF0D9"/>
<path d="M216.663 3049.01C221.696 3019.49 201.403 2993.33 171.563 2990.88C171.563 2990.88 157.276 2989.7 121.926 2996.19C86.9073 3002.62 74.5306 3008.49 74.5306 3008.49C47.4843 3021.32 37.7072 3052.97 52.8051 3078.83L148.246 3242.22C163.34 3268.07 179.82 3265.08 184.853 3235.56L216.663 3049.01Z" fill="#FBF0D9"/>
<path d="M377.304 3133.93C400.131 3114.56 401.404 3081.47 380.122 3060.41C380.122 3060.41 369.93 3050.33 338.68 3032.58C307.724 3014.99 294.467 3011.54 294.467 3011.54C265.502 3003.98 237.667 3021.94 232.613 3051.45L200.698 3237.97C195.645 3267.47 210.189 3275.78 233.02 3256.4L377.304 3133.93Z" fill="#FBF0D9"/>
</g>
</g>
<defs>
<linearGradient id="paint0_linear_455_771" x1="2637" y1="-2.61513e-05" x2="274.229" y2="5262.13" gradientUnits="userSpaceOnUse">
<stop offset="0.193589" stop-color="#FAE8B9"/>
<stop offset="0.486224" stop-color="#E5C47A"/>
<stop offset="0.756583" stop-color="#FAE8B9"/>
</linearGradient>
<clipPath id="clip0_455_771">
<rect width="3000" height="5139" fill="white"/>
</clipPath>
</defs>
</svg>
